# xmcd
#
# Track frame offsets: 
#        150
#        13701
#        41819
#        56442
#        69874
#        91624
#        134161
#        153434
#        179536
#        203080
#        222490
#
# Disc length: 3321 seconds
#
# Revision: 0
# Processed by: cddbd v1.5.2PL0 Copyright (c) Steve Scherf et al.
# Submitted via: ExactAudioCopy v0.99pb5
#
DISCID=9a0cf70b
DTITLE=Mahalia Jackson - A Spiritual Christmas
DYEAR=1968
DGENRE=Christmas
TTITLE0=Silent Night
TTITLE1=If I Could Help Somebody
TTITLE2=Holding My Savior's Hand
TTITLE3=This Is My Faith
TTITLE4=Elijah Rock
TTITLE5=We Shall Overcome
TTITLE6=We Have Come a Mighty Long Way
TTITLE7=How I Got Over
TTITLE8=I Would Rather Have Jesus
TTITLE9=It's in My Heart
TTITLE10=Come on Children, Let's Sing
EXTD=
EXTT0=
EXTT1=
EXTT2=
EXTT3=
EXTT4=
EXTT5=
EXTT6=
EXTT7=
EXTT8=
EXTT9=
EXTT10=
PLAYORDER=
